<?xml version="1.0" standalone="no"?>
<!DOCTYPE svg PUBLIC "-//W3C//DTD SVG 20010904//EN"
 "http://www.w3.org/TR/2001/REC-SVG-20010904/DTD/svg10.dtd">
<svg version="1.0" xmlns="http://www.w3.org/2000/svg"
 width="60.000000pt" height="60.000000pt" viewBox="0 0 60.000000 60.000000"
 preserveAspectRatio="xMidYMid meet">
<metadata>
Created by potrace 1.15, written by Peter Selinger 2001-2017
</metadata>
<g transform="translate(0.000000,60.000000) scale(0.100000,-0.100000)"
fill="#000000" stroke="none">
<path d="M213 519 l-83 -50 0 -103 0 -104 80 -46 c43 -25 82 -46 85 -46 3 0 5
17 3 37 -3 32 -9 40 -48 63 l-45 26 -3 67 -3 66 41 26 c23 15 48 29 55 31 8 3
52 -17 99 -45 l86 -51 0 39 c0 38 -2 40 -86 90 -47 28 -89 51 -92 50 -4 0 -44
-23 -89 -50z"/>
<path d="M68 334 l-38 -24 0 -84 c0 -47 -2 -90 -5 -98 -4 -9 25 -31 83 -66 49
-28 92 -52 97 -52 4 0 30 14 57 30 40 25 51 28 62 18 7 -7 29 -22 48 -32 l36
-19 91 53 c50 30 91 58 91 63 0 5 -15 0 -32 -11 -18 -11 -60 -36 -92 -56 l-60
-35 -35 21 c-54 32 -56 35 -22 52 l31 17 0 94 c0 52 -3 95 -8 95 -4 0 -17 -7
-29 -15 -18 -13 -23 -27 -25 -77 l-3 -62 -57 -33 -56 -33 -55 32 -54 33 5 65
c2 36 9 71 15 78 6 7 6 12 0 12 -5 0 -8 14 -5 30 5 35 7 35 -40 4z"/>
</g>
</svg>
